<svg xmlns="http://www.w3.org/2000/svg" xmlns:xlink="http://www.w3.org/1999/xlink" viewBox="0 0 134 102" width="35" height="35" preserveAspectRatio="xMidYMid meet" style="width: 35px; height: 35px; transform: translate3d(0px, 0px, 0px); content-visibility: visible;">
  <defs>
    <clipPath id="__lottie_element_170">
      <rect width="134" height="102" x="0" y="0"></rect>
    </clipPath>
    <clipPath id="__lottie_element_172">
      <path d="M0,0 L200,0 L200,200 L0,200z"></path>
    </clipPath>
  </defs>
  <g clip-path="url(#__lottie_element_170)">
    <g clip-path="url(#__lottie_element_172)" transform="matrix(1,0,0,1,-33,-49)" opacity="1" style="display: block;">
      <g transform="matrix(3,0,0,3,100,100)" opacity="1" style="display: block;">
        <g opacity="1" transform="matrix(1,0,0,1,0,0)">
          <path stroke-linecap="square" stroke-linejoin="miter" fill-opacity="0" stroke-miterlimit="4" stroke="#fff" stroke-opacity="1" stroke-width="3" d="M-21.25,9 C-21.25,9 -14.278575897216797,5.414696216583252 -14.278575897216797,5.414696216583252 C-13.296979904174805,4.909875392913818 -11.603799819946289,4.5 -10.5,4.5 C-10.5,4.5 21,4.5 21,4.5"></path>
        </g>
      </g>
      <g transform="matrix(-3,0,0,-3,100,101)" opacity="1" style="display: block;">
        <g opacity="1" transform="matrix(1,0,0,1,0,0)">
          <path stroke-linecap="square" stroke-linejoin="miter" fill-opacity="0" stroke-miterlimit="4" stroke="#fff" stroke-opacity="1" stroke-width="3" d="M-21.25,9 C-21.25,9 -14.278575897216797,5.414696216583252 -14.278575897216797,5.414696216583252 C-13.296979904174805,4.909875392913818 -11.603799819946289,4.5 -10.5,4.5 C-10.5,4.5 21,4.5 21,4.5"></path>
        </g>
      </g>
    </g>
  </g>
</svg>