<svg width="2360" height="1300" viewBox="0 0 2360 1300" fill="none" xmlns="http://www.w3.org/2000/svg">
<g filter="url(#filter0_f_179_958)">
<path d="M2102.53 692.007C2102.53 539.85 1689.47 200.908 1179.93 200.908C670.385 200.908 257.319 539.85 257.319 692.007C257.319 844.164 670.385 743.567 1179.93 743.567C1689.47 743.567 2102.53 844.164 2102.53 692.007Z" fill="#FF72AD"/>
</g>
<g filter="url(#filter1_f_179_958)">
<path d="M2102.53 752.36C2102.53 594.522 1689.47 242.926 1179.93 242.926C670.385 242.926 257.319 594.522 257.319 752.36C257.319 910.198 670.385 805.845 1179.93 805.845C1689.47 805.845 2102.53 910.198 2102.53 752.36Z" fill="#FFABCF"/>
</g>
<g filter="url(#filter2_f_179_958)">
<path d="M2102.53 698.75C2102.53 545.847 1689.47 257.872 1179.93 257.872C670.385 257.872 257.319 545.847 257.319 698.75C257.319 851.654 670.385 841.584 1179.93 841.584C1689.47 841.584 2102.53 851.654 2102.53 698.75Z" fill="#FF006B"/>
</g>
<g filter="url(#filter3_f_179_958)">
<path d="M2259.25 760.329C2259.25 567.302 1776.02 380.865 1179.93 380.865C583.834 380.865 100.604 567.302 100.604 760.329C100.604 953.357 583.834 1199.44 1179.93 1199.44C1776.02 1199.44 2259.25 953.357 2259.25 760.329Z" fill="black"/>
</g>
<defs>
<filter id="filter0_f_179_958" x="57.3193" y="0.908386" width="2245.21" height="975.273" filterUnits="userSpaceOnUse" color-interpolation-filters="sRGB">
<feFlood flood-opacity="0" result="BackgroundImageFix"/>
<feBlend mode="normal" in="SourceGraphic" in2="BackgroundImageFix" result="shape"/>
<feGaussianBlur stdDeviation="100" result="effect1_foregroundBlur_179_958"/>
</filter>
<filter id="filter1_f_179_958" x="57.3193" y="42.926" width="2245.21" height="996.75" filterUnits="userSpaceOnUse" color-interpolation-filters="sRGB">
<feFlood flood-opacity="0" result="BackgroundImageFix"/>
<feBlend mode="normal" in="SourceGraphic" in2="BackgroundImageFix" result="shape"/>
<feGaussianBlur stdDeviation="100" result="effect1_foregroundBlur_179_958"/>
</filter>
<filter id="filter2_f_179_958" x="7.31934" y="7.87158" width="2345.21" height="1083.85" filterUnits="userSpaceOnUse" color-interpolation-filters="sRGB">
<feFlood flood-opacity="0" result="BackgroundImageFix"/>
<feBlend mode="normal" in="SourceGraphic" in2="BackgroundImageFix" result="shape"/>
<feGaussianBlur stdDeviation="125" result="effect1_foregroundBlur_179_958"/>
</filter>
<filter id="filter3_f_179_958" x="0.604492" y="280.865" width="2358.65" height="1018.58" filterUnits="userSpaceOnUse" color-interpolation-filters="sRGB">
<feFlood flood-opacity="0" result="BackgroundImageFix"/>
<feBlend mode="normal" in="SourceGraphic" in2="BackgroundImageFix" result="shape"/>
<feGaussianBlur stdDeviation="50" result="effect1_foregroundBlur_179_958"/>
</filter>
</defs>
</svg>
